<?xml version="1.0" encoding="iso-8859-1"?>
<!-- Generator: Adobe Illustrator 19.2.0, SVG Export Plug-In . SVG Version: 6.00 Build 0)  -->
<svg xmlns="http://www.w3.org/2000/svg" xmlns:xlink="http://www.w3.org/1999/xlink" version="1.1" x="0px" y="0px" viewBox="0 0 50 50" style="enable-background:new 0 0 50 50;" xml:space="preserve" width="100px" height="100px">
<g>
	<path d="M25,4c10.499,0,16,2.972,16,4v17c0,4.413-4.925,17.068-16,19.941C13.925,42.068,9,29.413,9,25V8C9,6.972,14.501,4,25,4    M25,2C15.059,2,7,4.686,7,8c0,0,0,8.083,0,17c0,5.083,5.417,19.083,18,22c12.583-2.917,18-16.917,18-22c0-8.917,0-17,0-17   C43,4.686,34.941,2,25,2L25,2z"/>
</g>
<path d="M39,15c-1.855-3.123-4.004-4-6-4c-3.438,0-5.195,3.074-5.561,3.439c-0.586,0.586-0.586,1.536,0,2.121  c0.586,0.586,1.536,0.586,2.121,0C29.973,16.149,31.313,13,34,13C35.387,13,37.047,13.64,39,15z"/>
<path d="M11,15c1.855-3.123,4.004-4,6-4c3.438,0,5.195,3.074,5.561,3.439c0.586,0.586,0.586,1.536,0,2.121  c-0.586,0.586-1.536,0.586-2.121,0C20.027,16.149,18.688,13,16,13C14.613,13,12.953,13.64,11,15z"/>
<g>
	<polygon points="33,31 29,31 26,28 24,28 21,31 17,31 11,26 16,34 23,34 25,32 27,34 34,34 39,26  "/>
</g>
<g>
	<polygon points="23,38 27,38 27,45.2 25,47 25,47 23,45.2  "/>
</g>
<path d="M34,17c-1.64,0-3.082,0.594-4,1.5c0.918,0.906,2.36,1.5,4,1.5s3.082-0.594,4-1.5C37.082,17.594,35.64,17,34,17z"/>
<path d="M16,17c-1.64,0-3.082,0.594-4,1.5c0.918,0.906,2.36,1.5,4,1.5s3.082-0.594,4-1.5C19.082,17.594,17.64,17,16,17z"/>
</svg>
